:SAMPLES-PER-SECOND 30
:FULLY-SPECIFIED
:DEGREES
148
root  -77.348 41.5035 -5.77908 -166.691 -86.0739 166.54
RightUpLeg  -8.49258 -7.22569 -5.75653
RightLeg  6.04965 -1.20927 2.05516
RightFoot  3.02594 -0.0451033 0.471077
RightToes  1.16414e-010 0 -3.6325e-017
Spine  7.61934 0.429549 7.77512
Spine1  -0.360241 2.51667 -9.45224
HEad  -15.6151 3.1467 -1.69669
LeftShoulder1  4.85165 -8.54322 -34.1989
LeftArm  -12.8438 25.318 -19.1695
LeftForeArm  22.7096 -17.8258 -3.34168
LeftHand  -0.244104 0.0205437 5.32207
RightShoulder  4.79926 7.67402 36.915
RightArm  -12.5517 -18.031 21.4677
RightForeArm  6.1376 8.85643 5.34952
RightHand  -0.600433 1.89126 -9.73741
LeftUpLeg  -5.82624 4.02493 -0.399158
LeftLeg  1.73183 11.4376 -5.56738
LeftFoot  3.21505 -0.817226 6.23915
LeftToes  -6.73059e-011 1.31891e-010 -1.28765e-011
149
root  -77.6912 41.5914 -5.89338 -168.214 -86.2889 168.195
RightUpLeg  -7.34774 -7.44919 -5.74566
RightLeg  5.05299 -1.26898 2.57663
RightFoot  3.56397 0.0619261 -0.291712
RightToes  1.16414e-010 0 -3.6325e-017
Spine  7.63678 0.466484 8.45059
Spine1  -1.43148 2.57169 -9.95768
HEad  -13.9269 2.85575 -1.77266
LeftShoulder1  4.0613 -7.59326 -30.5323
LeftArm  -13.6017 25.3176 -15.4895
LeftForeArm  21.2738 -13.2413 -3.14169
LeftHand  -0.244104 0.0205437 5.32207
RightShoulder  3.98128 6.56537 33.5951
RightArm  -13.3161 -21.1246 17.2914
RightForeArm  2.57629 7.06902 4.82349
RightHand  -0.583375 1.58705 -9.85345
LeftUpLeg  -5.22875 3.74715 -0.275192
LeftLeg  1.4025 11.4256 -5.19036
LeftFoot  2.90205 -0.745675 5.82033
LeftToes  -6.73059e-011 1.31891e-010 -1.28765e-011
150
root  -78.0168 41.656 -6.02262 -173.979 -86.0684 174.085
RightUpLeg  -6.17177 -7.44802 -5.47859
RightLeg  3.63011 -1.09239 2.95935
RightFoot  3.29966 0.015848 0.0518722
RightToes  1.16414e-010 0 -3.6325e-017
Spine  7.20374 0.649594 8.81916
Spine1  -2.04099 2.71392 -10.1852
HEad  -11.999 2.91377 -1.60428
LeftShoulder1  3.29463 -6.65597 -26.2345
LeftArm  -13.5335 25.6559 -12.2543
LeftForeArm  19.5613 -10.0126 -2.75239
LeftHand  -0.244104 0.0205437 5.32207
RightShoulder  3.30093 5.57788 30.3901
RightArm  -12.0438 -22.5738 11.8926
RightForeArm  0.661228 5.3387 4.63316
RightHand  -0.450721 0.427246 -9.0587
LeftUpLeg  -4.97783 3.70936 0.10525
LeftLeg  1.83434 11.6029 -4.63532
LeftFoot  2.14348 -0.636919 5.27235
LeftToes  -6.73059e-011 1.31891e-010 -1.28765e-011
151
root  -78.3262 41.6798 -6.18793 -176.768 -85.7303 176.883
RightUpLeg  -5.54724 -7.51173 -5.25537
RightLeg  3.11641 -0.555801 3.3298
RightFoot  3.38608 0.0488176 -0.19734
RightToes  1.16414e-010 0 -3.6325e-017
Spine  6.63182 0.743357 8.13182
Spine1  -2.49141 2.5874 -9.51781
HEad  -9.86019 3.62426 -1.02207
LeftShoulder1  2.40031 -5.22883 -21.0002
LeftArm  -12.7895 26.2976 -9.7426
LeftForeArm  16.9062 -8.2061 -2.55451
LeftHand  -0.244104 0.0205437 5.32207
RightShoulder  2.66221 4.56658 26.9201
RightArm  -11.7729 -22.4487 6.82902
RightForeArm  0.295955 3.75159 4.18315
RightHand  -0.38489 0.0539307 -8.26041
LeftUpLeg  -4.68973 3.75142 0.415646
LeftLeg  2.41554 11.813 -4.18791
LeftFoot  1.28588 -0.536665 4.77892
LeftToes  -6.73059e-011 1.31891e-010 -1.28765e-011
152
root  -78.6071 41.6918 -6.37114 -176.235 -85.5372 176.291
RightUpLeg  -5.2778 -7.58644 -5.09848
RightLeg  3.58717 -0.228735 3.45861
RightFoot  3.19802 0.154596 -1.0435
RightToes  1.16414e-010 0 -3.6325e-017
Spine  6.03877 0.585185 6.87447
Spine1  -2.95841 2.15629 -8.56602
HEad  -7.85475 4.63509 -0.218691
LeftShoulder1  1.50244 -3.34774 -14.9735
LeftArm  -12.3446 27.0828 -7.76428
LeftForeArm  15.5461 -8.0822 -2.45451
LeftHand  -0.244104 0.0205437 5.32207
RightShoulder  1.99521 3.32804 22.9711
RightArm  -12.084 -21.1621 3.11342
RightForeArm  -1.817 3.05023 3.98966
RightHand  -0.486158 0.690709 -9.35945
LeftUpLeg  -4.2645 3.76924 0.574321
LeftLeg  2.76177 11.9219 -3.93722
LeftFoot  0.597332 -0.46357 4.39648
LeftToes  -6.73059e-011 1.31891e-010 -1.28765e-011
153
root  -78.8568 41.6996 -6.53293 -174.88 -85.3602 174.937
RightUpLeg  -5.0104 -7.53252 -4.98103
RightLeg  4.0072 -0.188982 3.36005
RightFoot  2.35884 0.183639 -1.39017
RightToes  1.16414e-010 0 -3.6325e-017
Spine  5.38419 0.29225 6.28976
Spine1  -3.39361 1.79815 -8.70801
HEad  -6.01344 5.28506 0.754699
LeftShoulder1  0.821354 -1.60672 -8.56751
LeftArm  -13.0831 27.738 -6.3111
LeftForeArm  16.6391 -9.37302 -2.11193
LeftHand  -0.244104 0.0205437 5.32207
RightShoulder  1.41475 2.00633 19.1707
RightArm  -11.5925 -19.4516 0.234084
RightForeArm  -5.32035 3.64935 4.46631
RightHand  -0.528974 0.486763 -10.5882
LeftUpLeg  -4.01976 3.81125 0.678258
LeftLeg  3.24568 11.9878 -3.75177
LeftFoot  -0.155779 -0.386709 3.95631
LeftToes  -6.73059e-011 1.31891e-010 -1.28765e-011
154
root  -79.075 41.7079 -6.64954 -174.642 -84.9496 174.701
RightUpLeg  -4.67911 -7.44949 -4.88158
RightLeg  3.98587 0.116207 3.30297
RightFoot  1.71239 0.152706 -1.2324
RightToes  1.16414e-010 0 -3.6325e-017
Spine  4.70557 0.191252 6.6108
Spine1  -3.57956 1.80533 -9.71786
HEad  -4.50006 5.39432 1.52486
LeftShoulder1  0.442646 -0.463615 -3.12782
LeftArm  -14.0236 27.8518 -5.22528
LeftForeArm  15.6766 -11.3237 -2.02397
LeftHand  -0.244104 0.0205437 5.32207
RightShoulder  0.981073 0.892686 15.6245
RightArm  -8.66148 -17.9316 -2.64769
RightForeArm  -10.0335 5.50745 5.92197
RightHand  -0.515047 -0.310429 -11.5171
LeftUpLeg  -3.79334 3.93141 0.803122
LeftLeg  3.6885 12.2077 -3.59087
LeftFoot  -0.877093 -0.32086 3.56241
LeftToes  -6.73059e-011 1.31891e-010 -1.28765e-011
155
root  -79.2539 41.7162 -6.73757 -175.108 -84.3249 175.003
RightUpLeg  -4.37063 -7.4401 -4.80877
RightLeg  4.0834 0.781811 3.36573
RightFoot  1.57843 0.158543 -1.30452
RightToes  1.16414e-010 0 -3.6325e-017
Spine  4.47329 0.299304 7.36645
Spine1  -3.99471 2.10639 -11.2198
HEad  -2.7453 5.26936 2.35801
LeftShoulder1  0.23729 0.0746255 1.8146
LeftArm  -13.7534 27.7686 -5.11672
LeftForeArm  9.18647 -13.2835 -2.72817
LeftHand  -0.244104 0.0205437 5.32207
RightShoulder  0.799878 0.478641 13.0858
RightArm  4.67138 -16.5413 -7.13588
RightForeArm  -27.4589 8.56976 10.7538
RightHand  -1.24168 2.68843 -17.6668
LeftUpLeg  -3.28422 4.03176 0.916141
LeftLeg  3.79116 12.6631 -3.48159
LeftFoot  -1.32998 -0.291872 3.42433
LeftToes  -6.73059e-011 1.31891e-010 -1.28765e-011
156
root  -79.3852 41.724 -6.82577 -175.738 -83.7922 175.295
RightUpLeg  -3.94091 -7.40635 -4.71275
RightLeg  4.29975 1.26688 3.38668
RightFoot  1.41526 0.183754 -1.55657
RightToes  1.16414e-010 0 -3.6325e-017
Spine  4.40179 0.424242 7.47778
Spine1  -3.77466 2.31142 -11.5834
HEad  -2.30858 5.30913 2.61283
LeftShoulder1  0.0976783 1.0044 5.14572
LeftArm  -13.6584 26.7537 -5.25608
LeftForeArm  3.71598 -15.2529 -3.39278
LeftHand  -0.244104 0.0205437 5.32207
RightShoulder  0.617806 -0.0352569 10.6088
RightArm  11.2507 -14.7593 -8.8728
RightForeArm  -39.8455 11.0057 12.2258
RightHand  -2.26705 6.38366 -22.5541
LeftUpLeg  -2.57918 4.12832 1.06385
LeftLeg  3.70465 13.0045 -3.44054
LeftFoot  -1.5852 -0.28239 3.42029
LeftToes  -6.73059e-011 1.31891e-010 -1.28765e-011
157
root  -79.4742 41.728 -6.92199 -176.736 -83.6012 175.959
RightUpLeg  -3.39172 -7.2589 -4.52637
RightLeg  4.27563 1.25732 3.30071
RightFoot  1.02012 0.172042 -1.52266
RightToes  1.16414e-010 0 -3.6325e-017
Spine  4.47238 0.371003 7.3692
Spine1  -3.49193 2.30481 -11.6606
HEad  -2.49548 5.37438 2.85695
LeftShoulder1  0.0294411 1.70939 7.77984
LeftArm  -13.9057 25.6125 -5.89382
LeftForeArm  -0.0118728 -16.6919 -3.8739
LeftHand  -0.244104 0.0205437 5.32207
RightShoulder  0.487862 -0.505926 8.8327
RightArm  9.3236 -12.3364 -9.68167
RightForeArm  -39.7674 9.8175 12.4644
RightHand  -2.44244 7.0066 -22.9001
LeftUpLeg  -2.04484 4.3809 1.3456
LeftLeg  3.79867 12.8379 -3.4576
LeftFoot  -1.8644 -0.262733 3.30447
LeftToes  -6.73059e-011 1.31891e-010 -1.28765e-011
